<svg xmlns="http://www.w3.org/2000/svg" width="380" height="240" viewBox="0 0 380 240" font-family="ui-sans-serif,Segoe UI,Helvetica,Arial">
<rect width="380" height="240" rx="10" fill="#0b1826"/>
<text x="44" y="26" fill="#e6eff7" font-size="15" font-weight="700">Daily attacker activity</text>
<text x="364" y="26" fill="#5ce6ad" font-size="11" text-anchor="end" font-weight="600">TRAPLINE</text>
<line x1="44" y1="194" x2="364" y2="194" stroke="#22415a" stroke-width="1"/>
<rect x="49" y="192.0" width="30" height="2.0" rx="2" fill="#ffb14e"/>
<text x="64.0" y="188.0" fill="#e6eff7" font-size="10" text-anchor="middle" font-variant-numeric="tabular-nums">2</text>
<text x="64.0" y="210.0" fill="#7f9bb3" font-size="9" text-anchor="middle">09-13</text>
<rect x="89" y="158.5" width="30" height="35.5" rx="2" fill="#ffb14e"/>
<text x="104.0" y="154.5" fill="#e6eff7" font-size="10" text-anchor="middle" font-variant-numeric="tabular-nums">36</text>
<text x="104.0" y="210.0" fill="#7f9bb3" font-size="9" text-anchor="middle">09-14</text>
<rect x="129" y="161.4" width="30" height="32.6" rx="2" fill="#ffb14e"/>
<text x="144.0" y="157.4" fill="#e6eff7" font-size="10" text-anchor="middle" font-variant-numeric="tabular-nums">33</text>
<text x="144.0" y="210.0" fill="#7f9bb3" font-size="9" text-anchor="middle">09-15</text>
<rect x="169" y="158.5" width="30" height="35.5" rx="2" fill="#ffb14e"/>
<text x="184.0" y="154.5" fill="#e6eff7" font-size="10" text-anchor="middle" font-variant-numeric="tabular-nums">36</text>
<text x="184.0" y="210.0" fill="#7f9bb3" font-size="9" text-anchor="middle">09-16</text>
<rect x="209" y="159.5" width="30" height="34.5" rx="2" fill="#ffb14e"/>
<text x="224.0" y="155.5" fill="#e6eff7" font-size="10" text-anchor="middle" font-variant-numeric="tabular-nums">35</text>
<text x="224.0" y="210.0" fill="#7f9bb3" font-size="9" text-anchor="middle">09-17</text>
<rect x="249" y="99.3" width="30" height="94.7" rx="2" fill="#ffb14e"/>
<text x="264.0" y="95.3" fill="#e6eff7" font-size="10" text-anchor="middle" font-variant-numeric="tabular-nums">96</text>
<text x="264.0" y="210.0" fill="#7f9bb3" font-size="9" text-anchor="middle">09-18</text>
<rect x="289" y="103.2" width="30" height="90.8" rx="2" fill="#ffb14e"/>
<text x="304.0" y="99.2" fill="#e6eff7" font-size="10" text-anchor="middle" font-variant-numeric="tabular-nums">92</text>
<text x="304.0" y="210.0" fill="#7f9bb3" font-size="9" text-anchor="middle">09-19</text>
<rect x="329" y="44.0" width="30" height="150.0" rx="2" fill="#ffb14e"/>
<text x="344.0" y="40.0" fill="#e6eff7" font-size="10" text-anchor="middle" font-variant-numeric="tabular-nums">152</text>
<text x="344.0" y="210.0" fill="#7f9bb3" font-size="9" text-anchor="middle">09-20</text>
<text x="44" y="230" fill="#54708a" font-size="9.5">attackers first seen per day · first-party honeypot capture</text>
</svg>
