<svg xmlns="http://www.w3.org/2000/svg" width="340" height="240" viewBox="0 0 340 240" font-family="ui-sans-serif,Segoe UI,Helvetica,Arial">
<rect width="340" height="240" rx="10" fill="#0b1826"/>
<text x="44" y="26" fill="#e6eff7" font-size="15" font-weight="700">Daily attacker activity</text>
<text x="324" y="26" fill="#5ce6ad" font-size="11" text-anchor="end" font-weight="600">TRAPLINE</text>
<line x1="44" y1="194" x2="324" y2="194" stroke="#22415a" stroke-width="1"/>
<rect x="49" y="190.9" width="30" height="3.1" rx="2" fill="#ffb14e"/>
<text x="64.0" y="186.9" fill="#e6eff7" font-size="10" text-anchor="middle" font-variant-numeric="tabular-nums">2</text>
<text x="64.0" y="210.0" fill="#7f9bb3" font-size="9" text-anchor="middle">09-13</text>
<rect x="89" y="137.8" width="30" height="56.2" rx="2" fill="#ffb14e"/>
<text x="104.0" y="133.8" fill="#e6eff7" font-size="10" text-anchor="middle" font-variant-numeric="tabular-nums">36</text>
<text x="104.0" y="210.0" fill="#7f9bb3" font-size="9" text-anchor="middle">09-14</text>
<rect x="129" y="142.4" width="30" height="51.6" rx="2" fill="#ffb14e"/>
<text x="144.0" y="138.4" fill="#e6eff7" font-size="10" text-anchor="middle" font-variant-numeric="tabular-nums">33</text>
<text x="144.0" y="210.0" fill="#7f9bb3" font-size="9" text-anchor="middle">09-15</text>
<rect x="169" y="137.8" width="30" height="56.2" rx="2" fill="#ffb14e"/>
<text x="184.0" y="133.8" fill="#e6eff7" font-size="10" text-anchor="middle" font-variant-numeric="tabular-nums">36</text>
<text x="184.0" y="210.0" fill="#7f9bb3" font-size="9" text-anchor="middle">09-16</text>
<rect x="209" y="139.3" width="30" height="54.7" rx="2" fill="#ffb14e"/>
<text x="224.0" y="135.3" fill="#e6eff7" font-size="10" text-anchor="middle" font-variant-numeric="tabular-nums">35</text>
<text x="224.0" y="210.0" fill="#7f9bb3" font-size="9" text-anchor="middle">09-17</text>
<rect x="249" y="44.0" width="30" height="150.0" rx="2" fill="#ffb14e"/>
<text x="264.0" y="40.0" fill="#e6eff7" font-size="10" text-anchor="middle" font-variant-numeric="tabular-nums">96</text>
<text x="264.0" y="210.0" fill="#7f9bb3" font-size="9" text-anchor="middle">09-18</text>
<rect x="289" y="62.8" width="30" height="131.2" rx="2" fill="#ffb14e"/>
<text x="304.0" y="58.8" fill="#e6eff7" font-size="10" text-anchor="middle" font-variant-numeric="tabular-nums">84</text>
<text x="304.0" y="210.0" fill="#7f9bb3" font-size="9" text-anchor="middle">09-19</text>
<text x="44" y="230" fill="#54708a" font-size="9.5">attackers first seen per day · first-party honeypot capture</text>
</svg>
