<svg xmlns="http://www.w3.org/2000/svg" width="724" height="272" viewBox="0 0 724 272" font-family="ui-sans-serif,Segoe UI,Helvetica,Arial">
<rect width="724" height="272" rx="10" fill="#0b1826"/>
<text x="44" y="26" fill="#e6eff7" font-size="15" font-weight="700">What they came for</text>
<text x="708" y="26" fill="#5ce6ad" font-size="11" text-anchor="end" font-weight="600">TRAPLINE</text>
<line x1="44" y1="194" x2="284" y2="194" stroke="#22415a"/>
<rect x="49" y="191.7" width="30" height="2.3" fill="#ff8c42"/>
<text x="64.0" y="210.0" fill="#7f9bb3" font-size="9" text-anchor="middle">09-13</text>
<rect x="89" y="132.6" width="30" height="61.4" fill="#ffb14e"/>
<rect x="89" y="123.5" width="30" height="9.1" fill="#ff8c42"/>
<rect x="89" y="119.0" width="30" height="4.5" fill="#ff5277"/>
<rect x="89" y="116.7" width="30" height="2.3" fill="#46c8e6"/>
<text x="104.0" y="210.0" fill="#7f9bb3" font-size="9" text-anchor="middle">09-14</text>
<rect x="129" y="141.7" width="30" height="52.3" fill="#ffb14e"/>
<rect x="129" y="132.6" width="30" height="9.1" fill="#ff8c42"/>
<rect x="129" y="121.3" width="30" height="11.4" fill="#ff5277"/>
<rect x="129" y="119.0" width="30" height="2.3" fill="#b06cff"/>
<text x="144.0" y="210.0" fill="#7f9bb3" font-size="9" text-anchor="middle">09-15</text>
<rect x="169" y="144.0" width="30" height="50.0" fill="#ffb14e"/>
<rect x="169" y="125.8" width="30" height="18.2" fill="#ff8c42"/>
<rect x="169" y="114.5" width="30" height="11.4" fill="#ff5277"/>
<rect x="169" y="112.2" width="30" height="2.3" fill="#b06cff"/>
<text x="184.0" y="210.0" fill="#7f9bb3" font-size="9" text-anchor="middle">09-16</text>
<rect x="209" y="137.2" width="30" height="56.8" fill="#ffb14e"/>
<rect x="209" y="119.0" width="30" height="18.2" fill="#ff8c42"/>
<rect x="209" y="114.5" width="30" height="4.5" fill="#ff5277"/>
<text x="224.0" y="210.0" fill="#7f9bb3" font-size="9" text-anchor="middle">09-17</text>
<rect x="249" y="98.5" width="30" height="95.5" fill="#ffb14e"/>
<rect x="249" y="80.4" width="30" height="18.2" fill="#ff8c42"/>
<rect x="249" y="71.3" width="30" height="9.1" fill="#ff5277"/>
<rect x="249" y="66.7" width="30" height="4.5" fill="#46c8e6"/>
<rect x="249" y="44.0" width="30" height="22.7" fill="#6b8299"/>
<text x="264.0" y="210.0" fill="#7f9bb3" font-size="9" text-anchor="middle">09-18</text>
<rect x="44" y="225" width="11" height="11" rx="2" fill="#ffb14e"/>
<text x="60" y="234" fill="#aab" font-size="10.5">SSH brute-force</text>
<rect x="169" y="225" width="11" height="11" rx="2" fill="#ff8c42"/>
<text x="185" y="234" fill="#aab" font-size="10.5">SSH shell/exploit</text>
<rect x="307" y="225" width="11" height="11" rx="2" fill="#ff5277"/>
<text x="323" y="234" fill="#aab" font-size="10.5">AI-infra abuse</text>
<rect x="425" y="225" width="11" height="11" rx="2" fill="#b06cff"/>
<text x="441" y="234" fill="#aab" font-size="10.5">Canary / creds</text>
<rect x="543" y="225" width="11" height="11" rx="2" fill="#46c8e6"/>
<text x="559" y="234" fill="#aab" font-size="10.5">Stage-2 host</text>
<rect x="648" y="225" width="11" height="11" rx="2" fill="#6b8299"/>
<text x="664" y="234" fill="#aab" font-size="10.5">Other</text>
</svg>
