<svg xmlns="http://www.w3.org/2000/svg" width="724" height="272" viewBox="0 0 724 272" font-family="ui-sans-serif,Segoe UI,Helvetica,Arial">
<rect width="724" height="272" rx="10" fill="#0b1826"/>
<text x="44" y="26" fill="#e6eff7" font-size="15" font-weight="700">What they came for</text>
<text x="708" y="26" fill="#5ce6ad" font-size="11" text-anchor="end" font-weight="600">TRAPLINE</text>
<line x1="44" y1="194" x2="284" y2="194" stroke="#22415a"/>
<rect x="49" y="191.9" width="30" height="2.1" fill="#ff8c42"/>
<text x="64.0" y="210.0" fill="#7f9bb3" font-size="9" text-anchor="middle">09-13</text>
<rect x="89" y="137.8" width="30" height="56.2" fill="#ffb14e"/>
<rect x="89" y="129.4" width="30" height="8.3" fill="#ff8c42"/>
<rect x="89" y="125.2" width="30" height="4.2" fill="#ff5277"/>
<rect x="89" y="123.2" width="30" height="2.1" fill="#46c8e6"/>
<text x="104.0" y="210.0" fill="#7f9bb3" font-size="9" text-anchor="middle">09-14</text>
<rect x="129" y="146.1" width="30" height="47.9" fill="#ffb14e"/>
<rect x="129" y="137.8" width="30" height="8.3" fill="#ff8c42"/>
<rect x="129" y="127.3" width="30" height="10.4" fill="#ff5277"/>
<rect x="129" y="125.2" width="30" height="2.1" fill="#b06cff"/>
<text x="144.0" y="210.0" fill="#7f9bb3" font-size="9" text-anchor="middle">09-15</text>
<rect x="169" y="148.2" width="30" height="45.8" fill="#ffb14e"/>
<rect x="169" y="131.5" width="30" height="16.7" fill="#ff8c42"/>
<rect x="169" y="121.1" width="30" height="10.4" fill="#ff5277"/>
<rect x="169" y="119.0" width="30" height="2.1" fill="#b06cff"/>
<text x="184.0" y="210.0" fill="#7f9bb3" font-size="9" text-anchor="middle">09-16</text>
<rect x="209" y="141.9" width="30" height="52.1" fill="#ffb14e"/>
<rect x="209" y="125.2" width="30" height="16.7" fill="#ff8c42"/>
<rect x="209" y="121.1" width="30" height="4.2" fill="#ff5277"/>
<text x="224.0" y="210.0" fill="#7f9bb3" font-size="9" text-anchor="middle">09-17</text>
<rect x="249" y="106.5" width="30" height="87.5" fill="#ffb14e"/>
<rect x="249" y="87.8" width="30" height="18.8" fill="#ff8c42"/>
<rect x="249" y="79.4" width="30" height="8.3" fill="#ff5277"/>
<rect x="249" y="75.2" width="30" height="4.2" fill="#46c8e6"/>
<rect x="249" y="44.0" width="30" height="31.2" fill="#6b8299"/>
<text x="264.0" y="210.0" fill="#7f9bb3" font-size="9" text-anchor="middle">09-18</text>
<rect x="44" y="225" width="11" height="11" rx="2" fill="#ffb14e"/>
<text x="60" y="234" fill="#aab" font-size="10.5">SSH brute-force</text>
<rect x="169" y="225" width="11" height="11" rx="2" fill="#ff8c42"/>
<text x="185" y="234" fill="#aab" font-size="10.5">SSH shell/exploit</text>
<rect x="307" y="225" width="11" height="11" rx="2" fill="#ff5277"/>
<text x="323" y="234" fill="#aab" font-size="10.5">AI-infra abuse</text>
<rect x="425" y="225" width="11" height="11" rx="2" fill="#b06cff"/>
<text x="441" y="234" fill="#aab" font-size="10.5">Canary / creds</text>
<rect x="543" y="225" width="11" height="11" rx="2" fill="#46c8e6"/>
<text x="559" y="234" fill="#aab" font-size="10.5">Stage-2 host</text>
<rect x="648" y="225" width="11" height="11" rx="2" fill="#6b8299"/>
<text x="664" y="234" fill="#aab" font-size="10.5">Other</text>
</svg>
