<svg xmlns="http://www.w3.org/2000/svg" width="724" height="272" viewBox="0 0 724 272" font-family="ui-sans-serif,Segoe UI,Helvetica,Arial">
<rect width="724" height="272" rx="10" fill="#0b1826"/>
<text x="44" y="26" fill="#e6eff7" font-size="15" font-weight="700">What they came for</text>
<text x="708" y="26" fill="#5ce6ad" font-size="11" text-anchor="end" font-weight="600">TRAPLINE</text>
<line x1="44" y1="194" x2="284" y2="194" stroke="#22415a"/>
<rect x="49" y="190.3" width="30" height="3.7" fill="#ff8c42"/>
<text x="64.0" y="210.0" fill="#7f9bb3" font-size="9" text-anchor="middle">09-13</text>
<rect x="89" y="95.2" width="30" height="98.8" fill="#ffb14e"/>
<rect x="89" y="80.6" width="30" height="14.6" fill="#ff8c42"/>
<rect x="89" y="73.3" width="30" height="7.3" fill="#ff5277"/>
<rect x="89" y="69.6" width="30" height="3.7" fill="#46c8e6"/>
<text x="104.0" y="210.0" fill="#7f9bb3" font-size="9" text-anchor="middle">09-14</text>
<rect x="129" y="109.9" width="30" height="84.1" fill="#ffb14e"/>
<rect x="129" y="95.2" width="30" height="14.6" fill="#ff8c42"/>
<rect x="129" y="76.9" width="30" height="18.3" fill="#ff5277"/>
<rect x="129" y="73.3" width="30" height="3.7" fill="#b06cff"/>
<text x="144.0" y="210.0" fill="#7f9bb3" font-size="9" text-anchor="middle">09-15</text>
<rect x="169" y="113.5" width="30" height="80.5" fill="#ffb14e"/>
<rect x="169" y="84.2" width="30" height="29.3" fill="#ff8c42"/>
<rect x="169" y="66.0" width="30" height="18.3" fill="#ff5277"/>
<rect x="169" y="62.3" width="30" height="3.7" fill="#b06cff"/>
<text x="184.0" y="210.0" fill="#7f9bb3" font-size="9" text-anchor="middle">09-16</text>
<rect x="209" y="102.5" width="30" height="91.5" fill="#ffb14e"/>
<rect x="209" y="73.3" width="30" height="29.3" fill="#ff8c42"/>
<rect x="209" y="66.0" width="30" height="7.3" fill="#ff5277"/>
<text x="224.0" y="210.0" fill="#7f9bb3" font-size="9" text-anchor="middle">09-17</text>
<rect x="249" y="87.9" width="30" height="106.1" fill="#ffb14e"/>
<rect x="249" y="66.0" width="30" height="22.0" fill="#ff8c42"/>
<rect x="249" y="55.0" width="30" height="11.0" fill="#ff5277"/>
<rect x="249" y="47.7" width="30" height="7.3" fill="#46c8e6"/>
<rect x="249" y="44.0" width="30" height="3.7" fill="#6b8299"/>
<text x="264.0" y="210.0" fill="#7f9bb3" font-size="9" text-anchor="middle">09-18</text>
<rect x="44" y="225" width="11" height="11" rx="2" fill="#ffb14e"/>
<text x="60" y="234" fill="#aab" font-size="10.5">SSH brute-force</text>
<rect x="169" y="225" width="11" height="11" rx="2" fill="#ff8c42"/>
<text x="185" y="234" fill="#aab" font-size="10.5">SSH shell/exploit</text>
<rect x="307" y="225" width="11" height="11" rx="2" fill="#ff5277"/>
<text x="323" y="234" fill="#aab" font-size="10.5">AI-infra abuse</text>
<rect x="425" y="225" width="11" height="11" rx="2" fill="#b06cff"/>
<text x="441" y="234" fill="#aab" font-size="10.5">Canary / creds</text>
<rect x="543" y="225" width="11" height="11" rx="2" fill="#46c8e6"/>
<text x="559" y="234" fill="#aab" font-size="10.5">Stage-2 host</text>
<rect x="648" y="225" width="11" height="11" rx="2" fill="#6b8299"/>
<text x="664" y="234" fill="#aab" font-size="10.5">Other</text>
</svg>
