<svg xmlns="http://www.w3.org/2000/svg" width="836" height="272" viewBox="0 0 836 272" font-family="ui-sans-serif,Segoe UI,Helvetica,Arial">
<rect width="836" height="272" rx="10" fill="#0b1826"/>
<text x="44" y="26" fill="#e6eff7" font-size="15" font-weight="700">What they came for</text>
<text x="820" y="26" fill="#5ce6ad" font-size="11" text-anchor="end" font-weight="600">TRAPLINE</text>
<line x1="44" y1="194" x2="604" y2="194" stroke="#22415a"/>
<rect x="49" y="193.2" width="30" height="0.8" fill="#ff8c42"/>
<text x="64.0" y="210.0" fill="#7f9bb3" font-size="9" text-anchor="middle">09-13</text>
<rect x="89" y="172.2" width="30" height="21.8" fill="#ffb14e"/>
<rect x="89" y="169.0" width="30" height="3.2" fill="#ff8c42"/>
<rect x="89" y="167.4" width="30" height="1.6" fill="#ff5277"/>
<rect x="89" y="165.8" width="30" height="1.6" fill="#46c8e6"/>
<text x="104.0" y="210.0" fill="#7f9bb3" font-size="9" text-anchor="middle">09-14</text>
<rect x="129" y="175.5" width="30" height="18.5" fill="#ffb14e"/>
<rect x="129" y="172.2" width="30" height="3.2" fill="#ff8c42"/>
<rect x="129" y="168.2" width="30" height="4.0" fill="#ff5277"/>
<rect x="129" y="167.4" width="30" height="0.8" fill="#b06cff"/>
<text x="144.0" y="210.0" fill="#7f9bb3" font-size="9" text-anchor="middle">09-15</text>
<rect x="169" y="176.3" width="30" height="17.7" fill="#ffb14e"/>
<rect x="169" y="169.8" width="30" height="6.5" fill="#ff8c42"/>
<rect x="169" y="165.8" width="30" height="4.0" fill="#ff5277"/>
<rect x="169" y="165.0" width="30" height="0.8" fill="#b06cff"/>
<rect x="169" y="164.2" width="30" height="0.8" fill="#46c8e6"/>
<text x="184.0" y="210.0" fill="#7f9bb3" font-size="9" text-anchor="middle">09-16</text>
<rect x="209" y="173.8" width="30" height="20.2" fill="#ffb14e"/>
<rect x="209" y="167.4" width="30" height="6.5" fill="#ff8c42"/>
<rect x="209" y="165.8" width="30" height="1.6" fill="#ff5277"/>
<text x="224.0" y="210.0" fill="#7f9bb3" font-size="9" text-anchor="middle">09-17</text>
<rect x="249" y="160.1" width="30" height="33.9" fill="#ffb14e"/>
<rect x="249" y="152.9" width="30" height="7.3" fill="#ff8c42"/>
<rect x="249" y="138.4" width="30" height="14.5" fill="#c65d7b"/>
<rect x="249" y="135.1" width="30" height="3.2" fill="#ff5277"/>
<rect x="249" y="129.5" width="30" height="5.6" fill="#46c8e6"/>
<rect x="249" y="117.4" width="30" height="12.1" fill="#6b8299"/>
<text x="264.0" y="210.0" fill="#7f9bb3" font-size="9" text-anchor="middle">09-18</text>
<rect x="289" y="178.7" width="30" height="15.3" fill="#ffb14e"/>
<rect x="289" y="167.4" width="30" height="11.3" fill="#ff8c42"/>
<rect x="289" y="143.2" width="30" height="24.2" fill="#c65d7b"/>
<rect x="289" y="140.0" width="30" height="3.2" fill="#ff5277"/>
<rect x="289" y="135.9" width="30" height="4.0" fill="#46c8e6"/>
<rect x="289" y="118.2" width="30" height="17.7" fill="#6b8299"/>
<text x="304.0" y="210.0" fill="#7f9bb3" font-size="9" text-anchor="middle">09-19</text>
<rect x="329" y="148.0" width="30" height="46.0" fill="#ffb14e"/>
<rect x="329" y="89.2" width="30" height="58.9" fill="#ff8c42"/>
<rect x="329" y="67.4" width="30" height="21.8" fill="#c65d7b"/>
<rect x="329" y="62.5" width="30" height="4.8" fill="#ff5277"/>
<rect x="329" y="60.1" width="30" height="2.4" fill="#46c8e6"/>
<rect x="329" y="46.4" width="30" height="13.7" fill="#6b8299"/>
<text x="344.0" y="210.0" fill="#7f9bb3" font-size="9" text-anchor="middle">09-20</text>
<rect x="369" y="157.7" width="30" height="36.3" fill="#ffb14e"/>
<rect x="369" y="117.4" width="30" height="40.3" fill="#ff8c42"/>
<rect x="369" y="93.2" width="30" height="24.2" fill="#c65d7b"/>
<rect x="369" y="87.5" width="30" height="5.6" fill="#ff5277"/>
<rect x="369" y="86.7" width="30" height="0.8" fill="#46c8e6"/>
<rect x="369" y="67.4" width="30" height="19.4" fill="#6b8299"/>
<text x="384.0" y="210.0" fill="#7f9bb3" font-size="9" text-anchor="middle">09-21</text>
<rect x="409" y="148.0" width="30" height="46.0" fill="#ffb14e"/>
<rect x="409" y="119.8" width="30" height="28.2" fill="#ff8c42"/>
<rect x="409" y="90.0" width="30" height="29.8" fill="#c65d7b"/>
<rect x="409" y="85.1" width="30" height="4.8" fill="#ff5277"/>
<rect x="409" y="69.8" width="30" height="15.3" fill="#6b8299"/>
<text x="424.0" y="210.0" fill="#7f9bb3" font-size="9" text-anchor="middle">09-22</text>
<rect x="449" y="165.8" width="30" height="28.2" fill="#ffb14e"/>
<rect x="449" y="128.7" width="30" height="37.1" fill="#ff8c42"/>
<rect x="449" y="106.9" width="30" height="21.8" fill="#c65d7b"/>
<rect x="449" y="100.5" width="30" height="6.5" fill="#ff5277"/>
<rect x="449" y="99.6" width="30" height="0.8" fill="#46c8e6"/>
<rect x="449" y="79.5" width="30" height="20.2" fill="#6b8299"/>
<text x="464.0" y="210.0" fill="#7f9bb3" font-size="9" text-anchor="middle">09-23</text>
<rect x="489" y="170.6" width="30" height="23.4" fill="#ffb14e"/>
<rect x="489" y="130.3" width="30" height="40.3" fill="#ff8c42"/>
<rect x="489" y="94.0" width="30" height="36.3" fill="#c65d7b"/>
<rect x="489" y="89.2" width="30" height="4.8" fill="#ff5277"/>
<rect x="489" y="67.4" width="30" height="21.8" fill="#6b8299"/>
<text x="504.0" y="210.0" fill="#7f9bb3" font-size="9" text-anchor="middle">09-24</text>
<rect x="529" y="172.2" width="30" height="21.8" fill="#ffb14e"/>
<rect x="529" y="133.5" width="30" height="38.7" fill="#ff8c42"/>
<rect x="529" y="115.0" width="30" height="18.5" fill="#c65d7b"/>
<rect x="529" y="109.3" width="30" height="5.6" fill="#ff5277"/>
<rect x="529" y="88.4" width="30" height="21.0" fill="#6b8299"/>
<text x="544.0" y="210.0" fill="#7f9bb3" font-size="9" text-anchor="middle">09-25</text>
<rect x="569" y="165.8" width="30" height="28.2" fill="#ffb14e"/>
<rect x="569" y="119.8" width="30" height="46.0" fill="#ff8c42"/>
<rect x="569" y="86.7" width="30" height="33.1" fill="#c65d7b"/>
<rect x="569" y="77.9" width="30" height="8.9" fill="#ff5277"/>
<rect x="569" y="77.1" width="30" height="0.8" fill="#46c8e6"/>
<rect x="569" y="44.0" width="30" height="33.1" fill="#6b8299"/>
<text x="584.0" y="210.0" fill="#7f9bb3" font-size="9" text-anchor="middle">09-26</text>
<rect x="44" y="225" width="11" height="11" rx="2" fill="#ffb14e"/>
<text x="60" y="234" fill="#aab" font-size="10.5">SSH brute-force</text>
<rect x="169" y="225" width="11" height="11" rx="2" fill="#ff8c42"/>
<text x="185" y="234" fill="#aab" font-size="10.5">SSH shell/exploit</text>
<rect x="307" y="225" width="11" height="11" rx="2" fill="#c65d7b"/>
<text x="323" y="234" fill="#aab" font-size="10.5">Redis exploit</text>
<rect x="418" y="225" width="11" height="11" rx="2" fill="#ff5277"/>
<text x="434" y="234" fill="#aab" font-size="10.5">AI-infra abuse</text>
<rect x="536" y="225" width="11" height="11" rx="2" fill="#b06cff"/>
<text x="552" y="234" fill="#aab" font-size="10.5">Canary / creds</text>
<rect x="654" y="225" width="11" height="11" rx="2" fill="#46c8e6"/>
<text x="670" y="234" fill="#aab" font-size="10.5">Stage-2 host</text>
<rect x="759" y="225" width="11" height="11" rx="2" fill="#6b8299"/>
<text x="775" y="234" fill="#aab" font-size="10.5">Other</text>
</svg>
